{"title":"Glenn.the.flying.Robot.2010.BDRip.XVID.AC3.HQ.Hive-CM8","uid":6364983,"size":1418829765,"categoryP":"video","categoryS":"movies","magnet":"?xt=urn:btih:26e3d1e3bb86b1f0294314a5abb3861a13b92ac3&amp;dn=Glenn.the.flying.Robot.2010.BDRip.XVID.AC3.HQ.Hive-CM8&amp;tr=udp%3A%2F%2Ftracker.openbittorrent.com%3A80&amp;tr=udp%3A%2F%2Fopen.demonii.com%3A1337&amp;tr=udp%3A%2F%2Ftracker.coppersurfer.tk%3A6969&amp;tr=udp%3A%2F%2Fexodus.desync.com%3A6969","seeders":0,"leechers":0,"uploader":"sceneline","files":5,"time":1304472391,"description":"- &lt;a href=&quot;\nhttp://www.Speed.Cd&quot; rel=&quot;nofollow&quot; target=&quot;_NEW&quot;&gt;\nhttp://www.Speed.Cd&lt;/a&gt; \n       &lt;a href=&quot;\nhttp://www.Speed.Cd&quot; rel=&quot;nofollow&quot; target=&quot;_NEW&quot;&gt;\nhttp://www.Speed.Cd&lt;/a&gt;       the fast  and The Hottest Private Tracker on the net\n\nPlease Seed back to make the speed Faster!!!\n\nand don't forget to visit      ...... http://www.Speed.Cd..........\n-[img]http://img109.imageshack.us/img109/6531/glenng.jpg[/img]\n\n[color=blue][size=5][b]Glenn.The.Flying.Robot.2010.BDRip.XVID.AC3.HQ.Hive-CM8[/b][/size][/color]\n\n\n[b]Thx Hive\n\nCM8 Doing It Right The First Time :D\n\n\nSource Bluray\n\nVideo: 720x320 @bitrate 1800 2pass\nAudio: English DTS to AC3 5.1 @448\nSample: yes included[/b]\n\n\n[url]http://www.imdb.com/title/tt0934446/[/url]\n\n\nGeneral\nComplete name                    : Glenn.the.flying.Robot.2010.BDRip.XVID.AC3.HQ.Hive-CM8.avi\nFormat                           : AVI\nFormat/Info                      : Audio Video Interleave\nFile size                        : 1.32 GiB\nDuration                         : 1h 23mn\nOverall bit rate                 : 2 257 Kbps\nWriting application              : Nandub v1.0rc2\nWriting library                  : Nandub build 1853/release\n\nVideo\nID                               : 0\nFormat                           : MPEG-4 Visual\nFormat profile                   : Advanced Simple@L5\nFormat settings, BVOP            : Yes\nFormat settings, QPel            : Yes\nFormat settings, GMC             : No warppoints\nFormat settings, Matrix          : Default (H.263)\nMuxing mode                      : Packed bitstream\nCodec ID                         : XVID\nCodec ID/Hint                    : XviD\nDuration                         : 1h 23mn\nBit rate                         : 1 799 Kbps\nWidth                            : 720 pixels\nHeight                           : 320 pixels\nDisplay aspect ratio             : 2.2:1\nFrame rate                       : 23.976 fps\nColor space                      : YUV\nChroma subsampling               : 4:2:0\nBit depth                        : 8 bits\nScan type                        : Progressive\nBits/(Pixel*Frame)               : 0.326\nStream size                      : 1.05 GiB (80%)\nWriting library                  : XviD 1.2.1 (UTC 2008-12-04)\n\nAudio\nID                               : 1\nFormat                           : AC-3\nFormat/Info                      : Audio Coding 3\nMode extension                   : CM (complete main)\nCodec ID                         : 2000\nDuration                         : 1h 23mn\nBit rate mode                    : Constant\nBit rate                         : 448 Kbps\nChannel(s)                       : 6 channels\nChannel positions                : Front: L C R, Side: L R, LFE\nSampling rate                    : 48.0 KHz\nBit depth                        : 16 bits\nStream size                      : 268 MiB (20%)\nAlignment                        : Split accross interleaves\nInterleave, duration             : 42 ms (1.00 video frame)\nInterleave, preload duration     : 500 ms\n\n\n\nBilly Boyd\t ... \tJack\nDominic Gould\t... \tHenry\nPatrick Bauchau\t... \tRichard\nGerard Depardieu ... \tTV reporter\nSmadi Wolfman\t... \tLana\n\n\nHenry (Dominic Gould) and Jack (Billy Boyd) are rival concert pianists who battle \nfor the affection of beautiful Lana (Smadi Wolfman). Jacks career ends after he injures his hand, \nbut when he learns that his domestic robot, GLENN, can play piano, Jack sees an opportunity to \nget even with Henry. GLENN, however, is programmed to be capable of expressing emotions, \nand has quietly devised its own dangerous machinations in this sci-fi drama.\n\n\n[img]http://img853.imageshack.us/img853/1551/ggll.png[/img]\n[img]http://img153.imageshack.us/img153/7104/60471743.png[/img]\n[img]http://img6.imageshack.us/img6/3118/gglgglll.png[/img]\n[img]http://img690.imageshack.us/img690/1481/gglglglglgll.png[/img]\n[img]http://img706.imageshack.us/img706/954/gglglglgll.png[/img]\n[img]http://img97.imageshack.us/img97/746/gglglgll.png[/img]\n[img]http://img685.imageshack.us/img685/6871/gglgll.png[/img]\n\n\n\n\n\nGreetz\n\nViSiON,LUSi,SANTi,MAGNET,THC,T0XiCiNK,LKRG,IMAGiNE,WBZ,FLAWL3SS,NOVA\nVik,OneTwo,Rapeseed,D2U,SAFC,goldadvance,MEMORY100,KaN1vE,Unevano,Pinnz,Wayne,Mr Hive\nand all P2P groups \nGreat Work Guys :D\n\n&lt;a class=&quot;__cf_email__&quot; href=&quot;/cdn-cgi/l/email-protection&quot; data-cfemail=&quot;41020c7901293432292c20282d6f222e2c&quot;&gt;[email&amp;#160;protected]&lt;/a&gt;&lt;script cf-hash='f9e31' type=&quot;text/javascript&quot;&gt;\n/* &lt;![CDATA[ */!function(){try{var t=&quot;currentScript&quot;in document?document.currentScript:function(){for(var t=document.getElementsByTagName(&quot;script&quot;),e=t.length;e--;)if(t[e].getAttribute(&quot;cf-hash&quot;))return t[e]}();if(t&amp;&amp;t.previousSibling){var e,r,n,i,c=t.previousSibling,a=c.getAttribute(&quot;data-cfemail&quot;);if(a){for(e=&quot;&quot;,r=parseInt(a.substr(0,2),16),n=2;a.length-n;n+=2)i=parseInt(a.substr(n,2),16)^r,e+=String.fromCharCode(i);e=document.createTextNode(e),c.parentNode.replaceChild(e,c)}}}catch(u){}}();/* ]]&gt; */&lt;/script&gt;","torrent":{"xt":"urn:btih:26e3d1e3bb86b1f0294314a5abb3861a13b92ac3","amp;dn":"Glenn.the.flying.Robot.2010.BDRip.XVID.AC3.HQ.Hive-CM8","amp;tr":["udp%3A%2F%2Ftracker.openbittorrent.com%3A80","udp%3A%2F%2Fopen.demonii.com%3A1337","udp%3A%2F%2Ftracker.coppersurfer.tk%3A6969","udp%3A%2F%2Fexodus.desync.com%3A6969"],"infoHash":"26e3d1e3bb86b1f0294314a5abb3861a13b92ac3","infoHashBuffer":{"type":"Buffer","data":[38,227,209,227,187,134,177,240,41,67,20,165,171,179,134,26,19,185,42,195]},"announce":[],"urlList":[]}}